# xmcd
#
# Track frame offsets:
#	182
#	12965
#	27015
#	44147
#	60765
#	78492
#	101080
#	115110
#	130742
#	143717
#	163555
#	175482
#	190892
#	207830
#	230277
#	249865
#	268147
#	282430
#
# Disc length: 3944
#
# Revision: 1
# Processed by: cddbd v1.5.1PL0 Copyright (c) Steve Scherf et al.
# Submitted via: audiograbber 1.82.02
# Normalized: r0:DSETVAR1
#
DISCID=f40f6612
DTITLE=Various Artist - Tejano Picante: Tex-Mex Classics
DYEAR=2001
DGENRE=Country
TTITLE0=Flaco Jimenez feat. Toby Torres - Ay Te Dejo en San Antonio
TTITLE1=Mingo Saldivar y Sus Tremenedos Cuatro Espadas - Rueda de Fuego
TTITLE2=Eva Ybarra y Su Conjunto - Dora
TTITLE3=Steve Jordan - You've Lost That Lovin' Feelin'
TTITLE4=The Royal Jesters - Yo Soy Chicano
TTITLE5=Little Joe y La Familia - Las Nubes [Live]
TTITLE6=Fito Olivares y La Pura Sabrosura - Cumbia Caliente
TTITLE7=Roberto Pulido and Bobby Pulido - Contigo
TTITLE8=La Sombra - Mi Guerita Coca Cola
TTITLE9=Emili Navaira - Te Deseo Bien
TTITLE10=Brave Combo with Tony de la Rosa - Besos Besitos
TTITLE11=La Mafia - Quién Como Yo
TTITLE12=Mazz - Soy Como Soy
TTITLE13=Ruben Ramos - El Chupa "Cabra" Chavas
TTITLE14=The Mavericks feat. Flaco Jimenez - All You Ever Do Is Bring Me Down
TTITLE15=Elida y Avante - Duele
TTITLE16=Los Lobos - Anselma
TTITLE17=Texas Tornados - (Hey Baby) Que Paso
EXTD=
EXTT0=
EXTT1=
EXTT2=
EXTT3=
EXTT4=
EXTT5=
EXTT6=
EXTT7=
EXTT8=
EXTT9=
EXTT10=
EXTT11=
EXTT12=
EXTT13=
EXTT14=
EXTT15=
EXTT16=
EXTT17=
PLAYORDER=
